<svg width="258" height="34" viewBox="0 0 258 34" fill="none" xmlns="http://www.w3.org/2000/svg">
<path fill-rule="evenodd" clip-rule="evenodd" d="M58.0758 7.63588L59.122 13.9583H58.5411C57.7275 10.0209 54.2436 8.35122 50.527 8.35122C49.9461 8.35122 49.3652 8.35121 48.5516 8.59016V19.4466H49.9461C52.9647 19.4466 54.823 18.2519 54.823 15.7481H55.4039V24.5758H54.9386C54.706 22.6672 54.0095 20.2822 50.0617 20.2822H48.5516V30.303C48.5516 31.9727 49.2481 32.927 51.6873 32.927V33.5251H41.3496V32.927C43.6732 32.927 44.4867 31.9727 44.4867 30.303V10.8564C44.4867 9.30551 43.5576 8.23099 41.234 8.23099V7.63588H58.0758ZM78.984 7.63588L80.0287 13.9583H79.4478C78.6342 10.0209 75.1488 8.35122 71.4322 8.35122C70.8528 8.35122 70.2704 8.35121 69.4583 8.59016V19.4466H70.8528C73.8714 19.4466 75.7312 18.2519 75.7312 15.7481H76.3106V24.5758H75.8468C75.6141 22.6672 74.9176 20.2822 70.9684 20.2822H69.4583V30.303C69.4583 31.9727 70.1548 32.927 72.594 32.927V33.5251H62.2563V32.927C64.5784 32.927 65.392 31.9727 65.392 30.303V10.8564C65.392 9.30551 64.4628 8.23099 62.1392 8.23099V7.63588H78.984ZM36.2399 7.63588V8.23099C34.4987 8.23099 33.4525 9.18529 33.4525 10.8564V30.3C33.4525 32.0899 34.6143 32.924 36.2399 32.924V33.5221H26.4831V32.924C28.2258 32.8067 29.2705 32.0899 29.2705 30.3V10.8564C29.2705 9.18679 28.2258 8.23099 26.4831 8.23099V7.63588H36.2399ZM23.5786 0.596616L24.6233 8.35122H24.1595C22.6494 4.29508 19.9775 1.55092 14.7509 1.55092V28.9881C14.7509 31.9697 16.3765 32.924 18.1192 32.924V33.5221H6.50408V32.924C8.1312 32.924 10.1051 31.9697 10.1051 28.9881V1.55092C4.76137 1.55092 2.32362 4.05613 0.465308 8.35122H0L0.81356 0.596616H23.5786ZM166.446 25.0522C166.446 29.1083 169.235 32.0914 173.3 32.0914C175.042 32.0914 177.132 31.2543 178.526 29.4675L170.395 18.7298C168.42 19.4466 166.446 21.5926 166.446 25.0522ZM177.597 9.06656C177.588 5.75132 176.191 4.05613 173.417 4.05613C170.628 4.05613 169.001 5.72728 169.001 8.46995C169.001 11.5718 173.067 15.8669 173.067 15.8669C176.32 13.9583 177.597 12.0497 177.597 9.06656ZM173.648 16.5822L180.619 25.5316C180.619 25.5316 181.314 24.0994 181.431 22.6672C181.431 20.9975 180.619 20.4009 179.224 20.1635V19.6856H186.775C186.775 19.6856 186.889 20.1635 186.775 20.1635C185.38 20.4009 184.334 20.8773 183.288 21.7129C182.476 22.7874 182.01 23.7417 181.081 26.1282L184.334 30.1843C185.728 31.854 187.587 32.8083 189.561 32.9255V33.5236H181.429V32.9255L179.106 30.0641C177.13 32.0929 173.996 33.8828 170.86 33.8828C165.865 33.8828 162.612 31.0184 162.612 27.0825C162.612 22.7889 166.561 20.0432 169.697 17.8957C169.697 17.8957 166.327 13.9598 166.327 10.3815C166.327 6.32691 169.347 3.22356 173.529 3.22356C177.247 3.22356 180.151 5.96773 180.151 9.30852C180.152 13.1227 175.855 14.7938 173.648 16.5822ZM224.289 0L224.637 10.3785H224.058C223.012 4.53253 219.296 1.19324 214.532 1.19324C208.842 1.19324 204.892 7.99354 204.892 17.0601C204.892 28.3929 209.306 33.0457 215.347 33.0457C221.617 33.0457 224.058 27.081 224.639 22.7874H225.218V27.3199C224.175 29.23 221.038 33.6423 214.418 33.6423C206.053 33.6423 199.549 26.6031 199.549 17.1803C199.549 8.59167 206.868 0.716845 214.418 0.716845C218.831 0.716845 219.992 2.62695 221.734 2.62695C223.012 2.62695 223.593 1.79137 223.71 0.001502L224.289 0ZM254.837 28.7506C256.114 28.7506 257.161 29.8251 257.161 31.1371C257.161 32.4491 256.114 33.4034 254.837 33.4034C253.56 33.4034 252.513 32.4491 252.513 31.1371C252.513 29.8251 253.56 28.7506 254.837 28.7506ZM231.956 20.162C231.956 28.154 234.974 33.0442 239.738 33.0442C244.616 33.0442 247.633 28.5117 247.633 20.162C247.633 12.5261 244.965 8.23099 239.852 8.11226C234.627 7.99354 231.956 13.1227 231.956 20.162ZM239.622 7.51565C246.81 7.53067 252.863 13.1332 252.863 20.6368C252.863 27.9135 247.173 33.5221 239.853 33.5221C232.651 33.5221 226.613 27.6746 226.613 20.6368C226.613 13.6006 232.537 7.51565 239.622 7.51565ZM88.8564 13.1227L93.1539 23.7402H84.6745L88.8564 13.1227ZM102.794 32.9255C101.865 32.9255 101.168 32.0914 100.703 31.4963C100.354 30.8982 90.5977 6.3239 90.5977 6.3239L81.6544 28.7506C80.6096 31.612 79.2151 32.924 77.2412 32.924V33.5221H84.5574V32.924C83.0488 32.8067 82.1182 32.0899 82.1182 31.0154C82.1182 30.1813 84.4404 24.4555 84.4404 24.4555H93.2681C93.2681 24.4555 95.7073 29.8236 95.8229 31.0154C95.9399 31.9697 94.5455 32.924 93.151 32.924V33.5221H102.791V32.9255H102.794ZM106.86 28.9881C106.86 31.3746 105.35 32.4491 103.724 32.924V33.5221H111.042V32.924C108.951 32.4491 107.789 31.0154 107.789 28.9881V12.1699L124.864 34V13.0055C124.864 10.0224 126.489 8.23249 128.348 8.23249V7.63738H120.101V8.11376C122.424 8.83061 124.05 10.2613 124.05 13.0055V25.8907L109.879 7.63738H103.142V8.11376C106.045 8.23249 106.859 10.7377 106.859 11.3343L106.86 28.9881ZM129.277 8.23099C130.311 8.23099 130.559 8.2385 131.368 9.78191C131.368 9.78191 139.149 22.5484 139.149 22.6657V30.3C139.149 31.9697 137.755 32.924 135.665 33.0442V33.5221H146.468V33.0442C144.493 32.924 143.216 31.9697 143.216 30.3V21.3537C143.216 21.3537 148.208 12.1684 148.673 11.3328C149.834 9.42424 151.459 8.231 153.435 7.99204V7.63437H144.607L144.724 7.99204C147.51 7.99204 148.208 10.7362 147.162 12.4058L142.632 20.9945L137.058 10.9752C136.126 9.42424 137.289 7.99204 139.379 7.99204V7.63437H129.274V8.23099H129.277Z" fill="black"/>
</svg>
