<svg width="30" height="30" viewBox="0 0 30 30" fill="none" xmlns="http://www.w3.org/2000/svg">
<g clip-path="url(#clip0_21_25)">
<path d="M21.9084 6.0557C20.3596 4.56888 18.2163 3.75 15.8732 3.75C12.2941 3.75 10.0928 5.21713 8.87636 6.44782C7.3772 7.96452 6.51758 9.97842 6.51758 11.9732C6.51758 14.4778 7.5652 16.4001 9.31956 17.1153C9.43733 17.1636 9.55585 17.1879 9.67205 17.1879C10.0422 17.1879 10.3354 16.9457 10.437 16.5573C10.4962 16.3344 10.6334 15.7846 10.6931 15.5459C10.8208 15.0746 10.7176 14.8479 10.4391 14.5197C9.93172 13.9193 9.69543 13.2093 9.69543 12.2854C9.69543 9.54094 11.739 6.62418 15.5265 6.62418C18.5318 6.62418 20.3986 8.33226 20.3986 11.0818C20.3986 12.8168 20.0249 14.4236 19.3461 15.6064C18.8744 16.4283 18.0449 17.408 16.7715 17.408C16.2209 17.408 15.7262 17.1818 15.4141 16.7874C15.1193 16.4147 15.0221 15.9331 15.1407 15.4312C15.2746 14.8641 15.4573 14.2726 15.6341 13.7008C15.9565 12.6564 16.2614 11.6699 16.2614 10.8829C16.2614 9.53676 15.4338 8.63223 14.2022 8.63223C12.637 8.63223 11.4108 10.2219 11.4108 12.2513C11.4108 13.2466 11.6753 13.991 11.7951 14.2769C11.5979 15.1123 10.426 20.079 10.2037 21.0156C10.0752 21.5623 9.30097 25.8806 10.5825 26.2249C12.0223 26.6118 13.3093 22.4061 13.4403 21.9308C13.5465 21.5443 13.918 20.0828 14.1456 19.1845C14.8407 19.854 15.9599 20.3066 17.0489 20.3066C19.1018 20.3066 20.948 19.3828 22.2476 17.7055C23.5079 16.0786 24.202 13.8111 24.202 11.321C24.2019 9.3743 23.3659 7.4551 21.9084 6.0557Z" fill="#246B65"/>
</g>
<defs>
<clipPath id="clip0_21_25">
<rect width="30" height="30" fill="white"/>
</clipPath>
</defs>
</svg>
