<svg width="2280" height="294" viewBox="0 0 2280 294" fill="none" xmlns="http://www.w3.org/2000/svg">
<path fill-rule="evenodd" clip-rule="evenodd" d="M515.065 66.1899L524.338 120.75H519.189C511.978 86.77 481.097 72.36 448.154 72.36C443.005 72.36 437.856 72.36 430.645 74.42V168.11H443.005C469.762 168.11 486.233 157.8 486.233 136.2H491.382V212.38H487.258C485.195 195.91 479.022 175.33 444.029 175.33H430.645V261.81C430.645 276.22 436.818 284.45 458.439 284.45V289.62H366.808V284.45C387.404 284.45 394.615 276.22 394.615 261.81V93.98C394.615 80.59 386.379 71.3199 365.783 71.3199V66.1899H515.065ZM700.39 66.1899L709.65 120.75H704.501C697.29 86.77 666.396 72.36 633.453 72.36C628.317 72.36 623.155 72.36 615.957 74.42V168.11H628.317C655.073 168.11 671.558 157.8 671.558 136.2H676.694V212.38H672.583C670.52 195.91 664.347 175.33 629.341 175.33H615.957V261.81C615.957 276.22 622.13 284.45 643.751 284.45V289.62H552.119V284.45C572.702 284.45 579.914 276.22 579.914 261.81V93.98C579.914 80.59 571.678 71.3199 551.082 71.3199V66.1899H700.39ZM321.517 66.1899V71.3199C306.083 71.3199 296.81 79.56 296.81 93.98V261.78C296.81 277.23 307.108 284.43 321.517 284.43V289.59H235.035V284.43C250.482 283.42 259.742 277.23 259.742 261.78V93.98C259.742 79.57 250.482 71.3199 235.035 71.3199V66.1899H321.517ZM209.29 5.43005L218.55 72.36H214.439C201.054 37.35 177.371 13.67 131.043 13.67V250.46C131.043 276.19 145.453 284.43 160.9 284.43V289.59H57.9459V284.43C72.3679 284.43 89.8639 276.19 89.8639 250.46V13.67C42.4989 13.67 20.8909 35.29 4.41892 72.36H0.294922L7.50592 5.43005H209.29ZM1475.63 216.49C1475.63 251.5 1500.35 277.24 1536.38 277.24C1551.83 277.24 1570.35 270.02 1582.71 254.6L1510.64 161.93C1493.13 168.11 1475.63 186.64 1475.63 216.49ZM1574.47 78.53C1574.4 49.92 1562.01 35.29 1537.42 35.29C1512.7 35.29 1498.28 49.71 1498.28 73.38C1498.28 100.15 1534.32 137.22 1534.32 137.22C1563.15 120.75 1574.47 104.28 1574.47 78.53ZM1539.47 143.39L1601.26 220.63C1601.26 220.63 1607.42 208.27 1608.45 195.91C1608.45 181.5 1601.26 176.35 1588.9 174.3V170.18H1655.82C1655.82 170.18 1656.83 174.3 1655.82 174.3C1643.46 176.35 1634.19 180.46 1624.91 187.67C1617.72 196.95 1613.59 205.18 1605.36 225.78L1634.19 260.78C1646.55 275.19 1663.02 283.43 1680.51 284.44V289.6H1608.44V284.44L1587.85 259.75C1570.34 277.26 1542.56 292.7 1514.76 292.7C1470.48 292.7 1441.65 267.98 1441.65 234.01C1441.65 196.96 1476.66 173.26 1504.45 154.73C1504.45 154.73 1474.58 120.76 1474.58 89.88C1474.58 54.89 1501.35 28.11 1538.42 28.11C1571.37 28.11 1597.11 51.79 1597.11 80.62C1597.12 113.54 1559.03 127.96 1539.47 143.39ZM1988.34 0.290039L1991.43 89.86H1986.29C1977.02 39.4 1944.09 10.58 1901.86 10.58C1851.42 10.58 1816.41 69.27 1816.41 147.52C1816.41 245.32 1855.53 285.48 1909.08 285.48C1964.66 285.48 1986.29 234 1991.44 196.95H1996.58V236.06C1987.33 252.55 1959.52 290.63 1900.85 290.63C1826.7 290.63 1769.05 229.88 1769.05 148.56C1769.05 74.4301 1833.92 6.46997 1900.85 6.46997C1939.96 6.46997 1950.25 22.96 1965.69 22.96C1977.02 22.96 1982.17 15.75 1983.2 0.300049L1988.34 0.290039ZM2259.11 248.41C2270.43 248.41 2279.71 257.68 2279.71 269.01C2279.71 280.33 2270.43 288.56 2259.11 288.56C2247.79 288.56 2238.51 280.33 2238.51 269.01C2238.51 257.68 2247.79 248.41 2259.11 248.41ZM2056.3 174.29C2056.3 243.26 2083.04 285.47 2125.27 285.47C2168.52 285.47 2195.26 246.35 2195.26 174.29C2195.26 108.39 2171.6 71.32 2126.29 70.3C2079.97 69.27 2056.3 113.54 2056.3 174.29ZM2124.25 65.15C2187.96 65.28 2241.61 113.63 2241.61 178.39C2241.61 241.19 2191.17 289.59 2126.3 289.59C2062.46 289.59 2008.94 239.12 2008.94 178.39C2008.94 117.66 2061.45 65.15 2124.25 65.15ZM787.897 113.54L825.989 205.17H750.829L787.897 113.54ZM911.43 284.44C903.2 284.44 897.02 277.24 892.9 272.11C889.813 266.94 803.331 54.86 803.331 54.86L724.06 248.41C714.799 273.1 702.439 284.43 684.943 284.43V289.59H749.792V284.43C736.42 283.42 728.171 277.23 728.171 267.96C728.171 260.76 748.754 211.34 748.754 211.34H827.001C827.001 211.34 848.621 257.67 849.646 267.96C850.683 276.19 838.323 284.43 825.963 284.43V289.59H911.41V284.44H911.43ZM947.48 250.46C947.48 271.06 934.09 280.33 919.68 284.43V289.59H984.54V284.43C966.01 280.33 955.71 267.96 955.71 250.46V105.32L1107.06 293.71V112.53C1107.06 86.78 1121.47 71.33 1137.94 71.33V66.2H1064.84V70.3101C1085.44 76.5001 1099.85 88.84 1099.85 112.53V223.73L974.23 66.2H914.52V70.3101C940.25 71.3301 947.46 92.95 947.46 98.1L947.48 250.46ZM1146.17 71.3199C1155.34 71.3199 1157.54 71.39 1164.71 84.71C1164.71 84.71 1233.68 194.88 1233.68 195.9V261.78C1233.68 276.19 1221.32 284.43 1202.8 285.47V289.59H1298.56V285.47C1281.05 284.43 1269.72 276.19 1269.72 261.78V184.57C1269.72 184.57 1313.98 105.3 1318.1 98.09C1328.39 81.62 1342.8 71.32 1360.3 69.26V66.17H1282.06L1283.1 69.26C1307.79 69.26 1313.98 92.94 1304.7 107.35L1264.55 181.47L1215.15 95C1206.89 81.62 1217.2 69.26 1235.72 69.26V66.17H1146.15V71.3199H1146.17Z" fill="black"/>
</svg>
