<svg width="40" height="40" viewBox="0 0 40 40" fill="none" xmlns="http://www.w3.org/2000/svg">
<circle cx="20" cy="20" r="19.5" fill="white" stroke="#246B65"/>
<path d="M15.8169 15.2089L19.4907 11.5351C19.8008 11.225 20.3036 11.225 20.6137 11.5351L24.2875 15.2089" stroke="#246B65" stroke-linecap="round" stroke-linejoin="round"/>
<path d="M11.4082 23.3608V22.3403H17.4346V23.3608H15.0176V30.1177H13.8359V23.3608H11.4082ZM20.1631 30.2358C18.5088 30.2358 17.4292 29.0327 17.4346 27.228C17.4292 25.4126 18.5088 24.2095 20.1631 24.2095C21.8066 24.2095 22.8809 25.4126 22.8809 27.228C22.8809 29.0327 21.8066 30.2358 20.1631 30.2358ZM18.584 27.228C18.584 28.3398 19.0942 29.2798 20.1631 29.2798C21.2158 29.2798 21.7207 28.3398 21.7207 27.228C21.7207 26.1108 21.2158 25.1602 20.1631 25.1548C19.0942 25.1602 18.584 26.1108 18.584 27.228ZM24.0088 32.3091V24.2847H25.126V25.23H25.2227C25.4268 24.8647 25.8188 24.2095 26.8984 24.2095C28.311 24.2095 29.3477 25.3159 29.3477 27.2173C29.3477 29.0972 28.3218 30.2305 26.9092 30.2358C25.8511 30.2305 25.4321 29.5859 25.2227 29.2046H25.1582V32.3091H24.0088ZM25.1367 27.1958C25.1367 28.4204 25.6738 29.2529 26.6514 29.2583C27.6611 29.2529 28.1875 28.3667 28.1875 27.1958C28.1875 26.0464 27.6772 25.1816 26.6514 25.187C25.6631 25.1816 25.1367 25.9819 25.1367 27.1958Z" fill="#246B65"/>
</svg>
