<svg width="30" height="30" viewBox="0 0 30 30" fill="none" xmlns="http://www.w3.org/2000/svg">
<path d="M10.5001 23.75C18.6251 23.75 23.1251 17 23.1251 11.125C23.1251 10.875 23.1251 10.75 23.1251 10.5C24.0001 9.875 24.7501 9.125 25.3751 8.25C24.6251 8.625 23.7501 8.875 22.8751 9C23.7501 8.5 24.5001 7.625 24.8751 6.5C24.0001 7 23.1251 7.375 22.1251 7.625C21.1251 6.75 19.8751 6.25 18.6251 6.25C16.1251 6.25 14.2501 8.25 14.2501 10.625C14.2501 11 14.2501 11.25 14.3751 11.625C10.6251 11.5 7.37512 9.75 5.25012 7C4.87512 7.75 4.62512 8.5 4.62512 9.25C4.62512 10.75 5.37512 12.125 6.62512 12.875C5.87512 12.875 5.25012 12.625 4.62512 12.375C4.62512 14.5 6.12512 16.25 8.12512 16.75C7.75012 16.875 7.37512 17 7.00012 17C6.75012 17 6.50012 17 6.12512 16.875C6.62512 18.625 8.37512 19.875 10.2501 20C8.75012 21.125 6.87512 21.875 4.75012 21.875C4.37512 21.875 4.00012 21.875 3.75012 21.875C5.75012 23 8.00012 23.75 10.5001 23.75Z" fill="#246B65"/>
</svg>
